<svg width="3293" height="1479" viewBox="0 0 3293 1479" fill="none" xmlns="http://www.w3.org/2000/svg">
<g id="Tube" clip-path="url(#clip0_5_24)">
<rect width="3293" height="1479" fill="white"/>
<g id="Lines">
<path id="2d-line" d="M145.353 138.646L599.062 592.354C608.438 601.731 621.156 606.998 634.417 606.998L1047.08 606.998C1060.46 606.998 1073.29 612.367 1082.69 621.901L1326.31 869.096C1335.71 878.631 1348.53 883.999 1361.92 883.999C1627.93 883.999 1905.2 883.999 2172.01 883.999C2199.62 883.999 2222 861.613 2222 833.999L2222 720.5C2222 689.572 2196.93 664.5 2166 664.5H2063.01C2049.57 664.5 2036.7 659.093 2027.3 649.497L1860.7 479.504C1851.3 469.908 1838.43 464.5 1824.99 464.5L928.5 464.499L778.711 464.5C765.45 464.5 752.732 459.232 743.355 449.855L583.5 290M2249 435.001L2073.14 259.145C2063.77 249.768 2051.05 244.5 2037.79 244.5L1997 244.5M3154 251.999L2930.64 475.355C2921.27 484.731 2908.55 489.999 2895.29 489.999L2506.5 490.001M965 464.499L928.5 464.499C891.497 464.499 861.5 434.503 861.5 397.499V397.499L861.5 314.499C861.5 275.839 892.84 244.499 931.5 244.499L2053.5 244.5L2335 244.499C2376.97 244.499 2411 278.526 2411 320.499L2411 420.001C2411 458.661 2442.34 490.001 2481 490.001L2506.5 490.001M1778 884H1763.5C1735.89 884 1713.5 906.386 1713.5 934V1344.5M2506.5 490.001L2455.35 490.001C2439.44 490.001 2424.18 496.322 2412.93 507.574L2236.65 683.856C2227.27 693.233 2222 705.95 2222 719.211V724" stroke="#EBDC00" stroke-width="9"/>
<path id="murdoc-line" d="M139.353 145.646L596.074 600.429C605.445 609.76 618.131 614.998 631.355 614.998L852.5 614.998M3239.5 731L3239.5 1005C3239.5 1036.48 3213.98 1062 3182.5 1062L2644 1062C2612.52 1062 2587 1036.48 2587 1005L2587 927.498C2587 898.227 2563.27 874.498 2534 874.498L1561.83 874.498C1556.5 874.498 1551.39 872.37 1547.63 868.585L1310.67 629.779C1301.28 620.319 1288.5 614.998 1275.18 614.998L852.5 614.998M2587 997.5L2587 1150.38C2587 1156.54 2589.47 1162.43 2593.85 1166.75L2661 1233M3159 1364.5L2812.32 1364.5C2799 1364.5 2786.22 1359.18 2776.83 1349.72L2661 1233M2661 1233H2194.5M251 616.998L251 821.5C251 861.264 283.236 893.5 323 893.5L568.173 893.5C576.027 893.5 583.52 890.201 588.824 884.408L826.581 624.739C832.264 618.532 840.292 614.998 848.707 614.998L852.5 614.998M872.5 176H1262.29C1275.55 176 1288.27 181.268 1297.64 190.645L1351.5 244.5M351 224.5L511.478 224.5C523.343 224.5 534.728 229.186 543.155 237.539L906.459 597.613C917.696 608.75 932.876 614.998 948.696 614.998L959.5 614.998" stroke="black" stroke-width="9"/>
</g>
<g id="Bands">
<g id="Kate Bush">
<g id="description">
<rect x="135.5" y="311.5" width="71" height="26" fill="white"/>
<text id="Title" fill="black" xml:space="preserve" style="white-space: pre" font-family="Cabin" font-size="12.6" letter-spacing="0em"><tspan x="143" y="329.005">Lion Heart</tspan></text>
<rect x="135.5" y="311.5" width="71" height="26" stroke="#CDCDCD"/>
</g>
<g id="title">
<text id="Title_2" fill="black" xml:space="preserve" style="white-space: pre" font-family="Cabin" font-size="18" letter-spacing="0em"><tspan x="215" y="329.435">Kate Bush</tspan></text>
</g>
</g>
<g id="Syd Barrett">
<g id="description_2">
<rect x="127.5" y="92.5" width="173" height="26" fill="white"/>
<text id="Title_3" fill="black" xml:space="preserve" style="white-space: pre" font-family="Cabin" font-size="12.6" letter-spacing="0em"><tspan x="135" y="110.005">Shine On You Crazy Diamond</tspan></text>
<rect x="127.5" y="92.5" width="173" height="26" stroke="#CDCDCD"/>
</g>
<g id="title_2">
<text id="Title_4" fill="black" xml:space="preserve" style="white-space: pre" font-family="Cabin" font-size="18" letter-spacing="0em"><tspan x="171" y="143.435">Syd Barrett</tspan></text>
</g>
</g>
<g id="Dukes of Stratosphear">
<g id="title_3">
<text id="Dukes of Stratosphear_2" fill="black" xml:space="preserve" style="white-space: pre" font-family="Cabin" font-size="18" letter-spacing="0em"><tspan x="178" y="385.435">Dukes of Stratosphear</tspan></text>
</g>
<g id="description_3">
<rect x="162.5" y="392.5" width="189" height="26" fill="white"/>
<text id="Title_5" fill="black" xml:space="preserve" style="white-space: pre" font-family="Cabin" font-size="12.6" letter-spacing="0em"><tspan x="170" y="410.005">The Psychedelic Warlords of XTC</tspan></text>
<rect x="162.5" y="392.5" width="189" height="26" stroke="#CDCDCD"/>
</g>
</g>
<g id="Magazine">
<g id="title_4">
<text id="Dukes of Stratosphear_3" fill="black" xml:space="preserve" style="white-space: pre" font-family="Cabin" font-size="18" letter-spacing="0em"><tspan x="336" y="447.435">Magazine</tspan></text>
</g>
<g id="description_4">
<rect x="256.5" y="456.5" width="171" height="26" fill="white"/>
<text id="Title_6" fill="black" xml:space="preserve" style="white-space: pre" font-family="Cabin" font-size="12.6" letter-spacing="0em"><tspan x="264" y="474.005">The Light Pours Out Of Them</tspan></text>
<rect x="256.5" y="456.5" width="171" height="26" stroke="#CDCDCD"/>
</g>
</g>
<g id="Iggy and the Stooges">
<g id="title_5">
<text id="Dukes of Stratosphear_4" fill="black" xml:space="preserve" style="white-space: pre" font-family="Cabin" font-size="18" letter-spacing="0em"><tspan x="316" y="509.435">Iggy and the Stooges</tspan></text>
</g>
<g id="description_5">
<rect x="359.5" y="519.5" width="131" height="26" fill="white"/>
<text id="Title_7" fill="black" xml:space="preserve" style="white-space: pre" font-family="Cabin" font-size="12.6" letter-spacing="0em"><tspan x="367" y="537.005">The Cavemen of Rock</tspan></text>
<rect x="359.5" y="519.5" width="131" height="26" stroke="#CDCDCD"/>
</g>
</g>
<g id="The Rolling Stones">
<g id="title_6">
<text id="Dukes of Stratosphear_5" fill="black" xml:space="preserve" style="white-space: pre" font-family="Cabin" font-size="18" letter-spacing="0em"><tspan x="399" y="580.435">The Rolling Stones</tspan></text>
</g>
<g id="description_6">
<rect x="422.5" y="587.5" width="138" height="26" fill="white"/>
<text id="Title_8" fill="black" xml:space="preserve" style="white-space: pre" font-family="Cabin" font-size="12.6" letter-spacing="0em"><tspan x="430" y="605.005">America&#x2019;s Finest Export</tspan></text>
<rect x="422.5" y="587.5" width="138" height="26" stroke="#CDCDCD"/>
</g>
</g>
</g>
<g id="Intersections">
<g id="intersection">
<circle id="Intersection" cx="138.5" cy="138.5" r="9.5" fill="white" stroke="black" stroke-width="4"/>
</g>
<g id="intersection_2">
<circle id="Intersection_2" cx="589" cy="282" r="12" fill="white" stroke="black" stroke-width="4"/>
</g>
<g id="intersection_3">
<circle id="Intersection_3" cx="350.5" cy="220.5" r="9.5" fill="white" stroke="black" stroke-width="4"/>
</g>
</g>
<g id="Stops">
<g id="stop">
<rect id="stop_2" x="768" y="594" width="6" height="12" fill="#EBDC00"/>
</g>
<g id="stop_3">
<rect width="6" height="13" transform="translate(363.192 368) rotate(45)" fill="black"/>
<rect id="stop_4" x="363.192" y="368" width="6" height="12" transform="rotate(45 363.192 368)" fill="black"/>
</g>
<g id="stop_5">
<rect id="stop_6" x="887" y="607" width="6" height="12" fill="#EBDC00"/>
</g>
<g id="stop_7">
<rect id="stop_8" x="973" y="594" width="6" height="12" fill="#EBDC00"/>
</g>
<g id="stop_9">
<rect id="stop_10" x="369.192" y="362" width="6" height="12" transform="rotate(45 369.192 362)" fill="#EBDC00"/>
</g>
</g>
</g>
<defs>
<clipPath id="clip0_5_24">
<rect width="3293" height="1479" fill="white"/>
</clipPath>
</defs>
</svg>
